<svg width="12" height="16" viewBox="0 0 12 16" fill="none" xmlns="http://www.w3.org/2000/svg">
<path d="M6 15.8611C5.95643 15.8188 5.89312 15.7567 5.81286 15.6765C5.64949 15.5133 5.41589 15.2751 5.13548 14.9758C4.57456 14.377 3.82687 13.534 3.07942 12.557C2.33175 11.5797 1.58582 10.4701 1.02717 9.33821C0.467981 8.20519 0.1 7.05685 0.1 6C0.1 4.43522 0.721605 2.93453 1.82807 1.82807C2.93453 0.721605 4.43522 0.1 6 0.1C7.56478 0.1 9.06546 0.721605 10.1719 1.82807C11.2784 2.93453 11.9 4.43522 11.9 6C11.9 7.05685 11.532 8.20519 10.9728 9.33821C10.4142 10.4701 9.66825 11.5797 8.92058 12.557C8.17313 13.534 7.42544 14.377 6.86452 14.9758C6.58411 15.2751 6.35051 15.5133 6.18714 15.6765C6.10688 15.7567 6.04357 15.8188 6 15.8611ZM3.80797 8.19203C4.38933 8.77339 5.17783 9.1 6 9.1C6.82217 9.1 7.61067 8.77339 8.19203 8.19203C8.77339 7.61067 9.1 6.82217 9.1 6C9.1 5.17783 8.77339 4.38933 8.19203 3.80797C7.61067 3.22661 6.82217 2.9 6 2.9C5.17783 2.9 4.38933 3.22661 3.80797 3.80797C3.22661 4.38933 2.9 5.17783 2.9 6C2.9 6.82217 3.22661 7.61067 3.80797 8.19203Z" fill="#11CEF8"/>
<path d="M6 15.8611C5.95643 15.8188 5.89312 15.7567 5.81286 15.6765C5.64949 15.5133 5.41589 15.2751 5.13548 14.9758C4.57456 14.377 3.82687 13.534 3.07942 12.557C2.33175 11.5797 1.58582 10.4701 1.02717 9.33821C0.467981 8.20519 0.1 7.05685 0.1 6C0.1 4.43522 0.721605 2.93453 1.82807 1.82807C2.93453 0.721605 4.43522 0.1 6 0.1C7.56478 0.1 9.06546 0.721605 10.1719 1.82807C11.2784 2.93453 11.9 4.43522 11.9 6C11.9 7.05685 11.532 8.20519 10.9728 9.33821C10.4142 10.4701 9.66825 11.5797 8.92058 12.557C8.17313 13.534 7.42544 14.377 6.86452 14.9758C6.58411 15.2751 6.35051 15.5133 6.18714 15.6765C6.10688 15.7567 6.04357 15.8188 6 15.8611ZM3.80797 8.19203C4.38933 8.77339 5.17783 9.1 6 9.1C6.82217 9.1 7.61067 8.77339 8.19203 8.19203C8.77339 7.61067 9.1 6.82217 9.1 6C9.1 5.17783 8.77339 4.38933 8.19203 3.80797C7.61067 3.22661 6.82217 2.9 6 2.9C5.17783 2.9 4.38933 3.22661 3.80797 3.80797C3.22661 4.38933 2.9 5.17783 2.9 6C2.9 6.82217 3.22661 7.61067 3.80797 8.19203Z" fill="url(#paint0_linear)"/>
<path d="M6 15.8611C5.95643 15.8188 5.89312 15.7567 5.81286 15.6765C5.64949 15.5133 5.41589 15.2751 5.13548 14.9758C4.57456 14.377 3.82687 13.534 3.07942 12.557C2.33175 11.5797 1.58582 10.4701 1.02717 9.33821C0.467981 8.20519 0.1 7.05685 0.1 6C0.1 4.43522 0.721605 2.93453 1.82807 1.82807C2.93453 0.721605 4.43522 0.1 6 0.1C7.56478 0.1 9.06546 0.721605 10.1719 1.82807C11.2784 2.93453 11.9 4.43522 11.9 6C11.9 7.05685 11.532 8.20519 10.9728 9.33821C10.4142 10.4701 9.66825 11.5797 8.92058 12.557C8.17313 13.534 7.42544 14.377 6.86452 14.9758C6.58411 15.2751 6.35051 15.5133 6.18714 15.6765C6.10688 15.7567 6.04357 15.8188 6 15.8611ZM3.80797 8.19203C4.38933 8.77339 5.17783 9.1 6 9.1C6.82217 9.1 7.61067 8.77339 8.19203 8.19203C8.77339 7.61067 9.1 6.82217 9.1 6C9.1 5.17783 8.77339 4.38933 8.19203 3.80797C7.61067 3.22661 6.82217 2.9 6 2.9C5.17783 2.9 4.38933 3.22661 3.80797 3.80797C3.22661 4.38933 2.9 5.17783 2.9 6C2.9 6.82217 3.22661 7.61067 3.80797 8.19203Z" stroke="black" stroke-width="0.2"/>
<defs>
<linearGradient id="paint0_linear" x1="6" y1="-1" x2="6" y2="7" gradientUnits="userSpaceOnUse">
<stop stop-color="white"/>
<stop offset="1" stop-color="white" stop-opacity="0"/>
</linearGradient>
</defs>
</svg>
